<?xml version="1.0" encoding="utf-8"?>
<!-- Generator: Adobe Illustrator 21.0.2, SVG Export Plug-In . SVG Version: 6.00 Build 0)  -->
<svg version="1.1" id="Layer_2" xmlns="http://www.w3.org/2000/svg" xmlns:xlink="http://www.w3.org/1999/xlink" x="0px" y="0px"
	 viewBox="0 0 1476 462" style="enable-background:new 0 0 1476 462;" xml:space="preserve">
<style type="text/css">
	.st0{fill:#FFFFFF;}
</style>
<polygon id="V" class="st0" points="32,148 228,148 174,242 184,258 322,20 366,137 195,435 "/>
<polygon id="I" class="st0" points="380,148 479,148 309,442 210,442 "/>
<polygon id="C" class="st0" points="498,148 719,148 667,238 557,238 488,359 597,359 549,442 328,442 "/>
<g id="O">
	<path class="st0" d="M739,148L569,442h223l168-294H739z M758,359h-59l69-121h60L758,359z"/>
</g>
<polygon id="L" class="st0" points="982,148 812,442 1033,442 1081,359 972,359 1092,148 "/>
<g id="O_1_">
	<path class="st0" d="M1223,148l-170,294h223l168-294H1223z M1242,359h-59l69-121h60L1242,359z"/>
</g>
<polygon id="Tilde" class="st0" points="437,20 338,20 380,128 479,128 "/>
</svg>
